<svg width="29" height="28" viewBox="0 0 29 28" fill="none" xmlns="http://www.w3.org/2000/svg">
<path fill-rule="evenodd" clip-rule="evenodd" d="M14.0731 0C6.34667 0 0.0818481 6.22428 0.0818481 13.9077C0.0818481 20.0533 4.09183 25.2604 9.65085 27.101C10.3504 27.2282 10.6065 26.7983 10.6065 26.4289C10.6065 26.0959 10.594 25.2241 10.5878 24.0615C6.69645 24.9032 5.87197 22.1967 5.87197 22.1967C5.23487 20.5922 4.31669 20.1623 4.31669 20.1623C3.04874 19.2965 4.41038 19.3146 4.41038 19.3146C5.81575 19.4115 6.55279 20.7496 6.55279 20.7496C7.80201 22.8748 9.82574 22.2633 10.6252 21.9061C10.7502 21.01 11.1124 20.3924 11.5122 20.0472C8.40788 19.6961 5.14118 18.5033 5.14118 13.1751C5.14118 11.6554 5.68459 10.4142 6.57778 9.4454C6.43412 9.09422 5.95317 7.67741 6.71519 5.76411C6.71519 5.76411 7.88945 5.38872 10.5628 7.18698C11.6808 6.87819 12.8738 6.72682 14.0668 6.72076C15.2536 6.72682 16.4528 6.87819 17.5709 7.18698C20.2442 5.38872 21.4122 5.76411 21.4122 5.76411C22.1742 7.67741 21.6933 9.09422 21.5496 9.4454C22.4428 10.4202 22.9862 11.6614 22.9862 13.1751C22.9862 18.5154 19.7133 19.69 16.5965 20.0351C17.0962 20.465 17.5459 21.3127 17.5459 22.6084C17.5459 24.4672 17.5272 25.9688 17.5272 26.4229C17.5272 26.7922 17.777 27.2282 18.4891 27.0889C24.0606 25.2543 28.0643 20.0473 28.0643 13.9077C28.0643 6.22428 21.7995 0 14.0731 0Z" fill="#44B4A0"/>
</svg>
