<svg width="25" height="23" viewBox="0 0 25 23" fill="none" xmlns="http://www.w3.org/2000/svg">
<path fill-rule="evenodd" clip-rule="evenodd" d="M12.4927 0H0V22.5H8.56243C4.0576 20.8963 0.833335 16.6203 0.833335 11.5898C0.833335 5.1869 6.05402 0 12.4927 0ZM16.3904 22.5C20.9196 20.9088 24.152 16.6257 24.152 11.5898C24.152 5.1869 18.9314 0 12.4927 0H25V22.5H16.3904ZM15.6062 22.5C15.4386 22.3875 15.3711 22.1943 15.3711 22.0191C15.3711 21.8939 15.3728 21.6732 15.3751 21.3779C15.3797 20.7803 15.3867 19.877 15.3867 18.8403C15.3867 17.7606 15.0119 17.0542 14.5955 16.6959C17.1929 16.4083 19.9203 15.4295 19.9203 10.9793C19.9203 9.71786 19.4675 8.68351 18.7232 7.87116C18.8429 7.57852 19.2437 6.39784 18.6086 4.80343C18.6086 4.80343 17.6353 4.4906 15.4075 5.98915C14.4758 5.73182 13.4764 5.60568 12.4875 5.60064C11.4933 5.60568 10.4992 5.73182 9.56744 5.98915C7.33967 4.4906 6.36112 4.80343 6.36112 4.80343C5.7261 6.39784 6.12689 7.57852 6.24661 7.87116C5.50228 8.67846 5.04944 9.71281 5.04944 10.9793C5.04944 15.4194 7.77169 16.4134 10.3586 16.706C10.0255 16.9936 9.72359 17.5083 9.61949 18.255C8.95324 18.5527 7.2668 19.0623 6.22579 17.2913C6.22579 17.2913 5.61159 16.1763 4.44045 16.0955C4.44045 16.0955 3.30574 16.0804 4.36237 16.8019C4.36237 16.8019 5.12752 17.1601 5.65843 18.4972C5.65843 18.4972 6.3455 20.7526 9.58826 20.0513C9.59115 20.5891 9.59565 21.0523 9.59907 21.4054C9.60182 21.6884 9.60388 21.9007 9.60388 22.0241C9.60388 22.1974 9.53627 22.3866 9.37323 22.5H15.6062Z" fill="#182234"/>
</svg>
