<svg width="87" height="37" viewBox="0 0 87 37" fill="none" xmlns="http://www.w3.org/2000/svg">
<path d="M14.4468 5L2 17.4468" stroke="#B44444" stroke-width="5"/>
<path d="M14.4468 17.4468L2 5" stroke="#B44444" stroke-width="5"/>
<path d="M18.7955 18.2727V6.27273H21.9091V7.79545H21.9773C22.0909 7.5 22.2576 7.22917 22.4773 6.98295C22.697 6.73295 22.9697 6.53409 23.2955 6.38636C23.6212 6.23485 24 6.15909 24.4318 6.15909C25.0076 6.15909 25.5549 6.3125 26.0739 6.61932C26.5966 6.92614 27.0208 7.40909 27.3466 8.06818C27.6761 8.72727 27.8409 9.58333 27.8409 10.6364C27.8409 11.6439 27.6837 12.4792 27.3693 13.142C27.0587 13.8049 26.642 14.2992 26.1193 14.625C25.6004 14.9508 25.0303 15.1136 24.4091 15.1136C24 15.1136 23.6345 15.0473 23.3125 14.9148C22.9943 14.7784 22.7216 14.5947 22.4943 14.3636C22.2708 14.1288 22.0985 13.8636 21.9773 13.5682H21.9318V18.2727H18.7955ZM21.8636 10.6364C21.8636 11.0606 21.9186 11.428 22.0284 11.7386C22.142 12.0455 22.3011 12.2841 22.5057 12.4545C22.714 12.6212 22.9621 12.7045 23.25 12.7045C23.5379 12.7045 23.7822 12.6231 23.983 12.4602C24.1875 12.2936 24.3428 12.0568 24.4489 11.75C24.5587 11.4394 24.6136 11.0682 24.6136 10.6364C24.6136 10.2045 24.5587 9.83523 24.4489 9.52841C24.3428 9.2178 24.1875 8.98106 23.983 8.81818C23.7822 8.65151 23.5379 8.56818 23.25 8.56818C22.9621 8.56818 22.714 8.65151 22.5057 8.81818C22.3011 8.98106 22.142 9.2178 22.0284 9.52841C21.9186 9.83523 21.8636 10.2045 21.8636 10.6364ZM33.3366 15.1591C32.4048 15.1591 31.6018 14.9811 30.9276 14.625C30.2571 14.2652 29.7401 13.75 29.3764 13.0795C29.0166 12.4053 28.8366 11.5985 28.8366 10.6591C28.8366 9.75758 29.0185 8.9697 29.3821 8.29545C29.7457 7.62121 30.259 7.09659 30.9219 6.72159C31.5848 6.34659 32.367 6.15909 33.2685 6.15909C33.9276 6.15909 34.5241 6.26136 35.0582 6.46591C35.5923 6.67045 36.0488 6.9678 36.4276 7.35795C36.8063 7.74432 37.098 8.21402 37.3026 8.76705C37.5071 9.32008 37.6094 9.94318 37.6094 10.6364V11.3636H29.8139V9.63636H34.723C34.7192 9.38636 34.6548 9.16667 34.5298 8.97727C34.4086 8.78409 34.2438 8.63447 34.0355 8.52841C33.831 8.41856 33.598 8.36364 33.3366 8.36364C33.0829 8.36364 32.8499 8.41856 32.6378 8.52841C32.4257 8.63447 32.2552 8.7822 32.1264 8.97159C32.0014 9.16098 31.9351 9.38258 31.9276 9.63636V11.5C31.9276 11.7803 31.9863 12.0303 32.1037 12.25C32.2211 12.4697 32.3897 12.642 32.6094 12.767C32.8291 12.892 33.0942 12.9545 33.4048 12.9545C33.6207 12.9545 33.8177 12.9242 33.9957 12.8636C34.1776 12.803 34.3329 12.7159 34.4616 12.6023C34.5904 12.4848 34.6851 12.3447 34.7457 12.1818H37.6094C37.5109 12.7879 37.2779 13.3144 36.9105 13.7614C36.5431 14.2045 36.0563 14.5492 35.4503 14.7955C34.848 15.0379 34.1435 15.1591 33.3366 15.1591ZM43.0938 15.1591C42.1468 15.1591 41.3362 14.9716 40.6619 14.5966C39.9877 14.2178 39.4706 13.6913 39.1108 13.017C38.7509 12.339 38.571 11.553 38.571 10.6591C38.571 9.76515 38.7509 8.98106 39.1108 8.30682C39.4706 7.62879 39.9877 7.10227 40.6619 6.72727C41.3362 6.34848 42.1468 6.15909 43.0938 6.15909C43.9498 6.15909 44.6903 6.31439 45.3153 6.625C45.9441 6.93182 46.4309 7.36742 46.7756 7.93182C47.1203 8.49242 47.2945 9.15152 47.2983 9.90909H44.3892C44.3475 9.45076 44.215 9.10227 43.9915 8.86364C43.7718 8.62121 43.4877 8.5 43.1392 8.5C42.8665 8.5 42.6278 8.57955 42.4233 8.73864C42.2188 8.89394 42.0597 9.13068 41.946 9.44886C41.8324 9.76326 41.7756 10.1591 41.7756 10.6364C41.7756 11.1136 41.8324 11.5114 41.946 11.8295C42.0597 12.1439 42.2188 12.3807 42.4233 12.5398C42.6278 12.6951 42.8665 12.7727 43.1392 12.7727C43.3703 12.7727 43.5748 12.7197 43.7528 12.6136C43.9309 12.5038 44.0748 12.3447 44.1847 12.1364C44.2983 11.9242 44.3665 11.6667 44.3892 11.3636H47.2983C47.2869 12.1326 47.1108 12.803 46.7699 13.375C46.429 13.9432 45.946 14.3826 45.321 14.6932C44.6998 15.0038 43.9574 15.1591 43.0938 15.1591ZM48.0668 8.61364V6.27273H56.5213V8.61364H53.7486V15H50.794V8.61364H48.0668ZM60.6406 11L63.0724 6.27273H66.027V15H63.0724V10.25L60.6406 15H57.6861V6.27273H60.6406V11ZM67.6236 15V6.27273H70.7599V9.38636H71.3054L73.169 6.27273H76.7599L73.9645 10.6818L76.7827 15H73.1463L71.4645 12.2955H70.7599V15H67.6236ZM80.4688 11L82.9006 6.27273H85.8551V15H82.9006V10.25L80.4688 15H77.5142V6.27273H80.4688V11Z" fill="white"/>
<circle cx="30.5" cy="25.5" r="6.5" stroke="#44B4A0" stroke-width="4"/>
<path d="M18.0227 27.4318V29.7727H13.6364V27.4318H18.0227ZM14.75 24.2727V33H11.7955V24.2727H14.75ZM19.8636 24.2727V33H16.9318V24.2727H19.8636Z" fill="white"/>
<path d="M40.4545 33L40.4318 30.6364H40.7045C40.875 30.6364 41.0246 30.5871 41.1534 30.4886C41.286 30.3902 41.3977 30.2386 41.4886 30.0341C41.5833 29.8295 41.6572 29.5701 41.7102 29.2557C41.767 28.9413 41.803 28.5682 41.8182 28.1364L41.9545 24.2727H49.1364V33H46.1818V26.6136H44.7273L44.5909 28.9773C44.553 29.7197 44.447 30.3485 44.2727 30.8636C44.1023 31.3788 43.875 31.7936 43.5909 32.108C43.3068 32.4186 42.9773 32.6458 42.6023 32.7898C42.2273 32.9299 41.8144 33 41.3636 33H40.4545ZM53.5938 29L56.0256 24.2727H58.9801V33H56.0256V28.25L53.5938 33H50.6392V24.2727H53.5938V29ZM60.5767 33V24.2727H63.7131V27.3864H64.2585L66.1222 24.2727H69.7131L66.9176 28.6818L69.7358 33H66.0994L64.4176 30.2955H63.7131V33H60.5767ZM73.4219 29L75.8537 24.2727H78.8082V33H75.8537V28.25L73.4219 33H70.4673V24.2727H73.4219V29Z" fill="white"/>
</svg>
